<mxfile host="Electron" modified="2023-05-22T20:11:28.122Z" agent="Mozilla/5.0 (Windows NT 10.0; Win64; x64) AppleWebKit/537.36 (KHTML, like Gecko) draw.io/21.2.8 Chrome/112.0.5615.165 Electron/24.2.0 Safari/537.36" etag="66hc-0a4sda66IziV6N6" version="21.2.8" type="device">
  <diagram name="Page-1" id="Inq1Hw6wfs_KIvEQWjql">
    <mxGraphModel dx="186" dy="605" grid="1" gridSize="10" guides="1" tooltips="1" connect="1" arrows="1" fold="1" page="1" pageScale="1" pageWidth="850" pageHeight="1100" math="0" shadow="0">
      <root>
        <mxCell id="0" />
        <mxCell id="1" parent="0" />
        <mxCell id="gyXMwO3ofP4Fgjw1sUbA-225" value="" style="group;fontFamily=Times New Roman;fontSize=25;fillColor=default;" parent="1" vertex="1" connectable="0">
          <mxGeometry x="850" width="610" height="629" as="geometry" />
        </mxCell>
        <mxCell id="gyXMwO3ofP4Fgjw1sUbA-120" value="&lt;font style=&quot;&quot;&gt;&lt;i style=&quot;font-size: 25px;&quot;&gt;x&lt;/i&gt;&lt;sub style=&quot;&quot;&gt;&lt;font style=&quot;font-size: 20px;&quot;&gt;4&lt;/font&gt;&lt;/sub&gt;&lt;/font&gt;" style="text;html=1;strokeColor=none;fillColor=none;align=center;verticalAlign=middle;whiteSpace=wrap;rounded=0;fontFamily=Times New Roman;fontSize=25;" parent="gyXMwO3ofP4Fgjw1sUbA-225" vertex="1">
          <mxGeometry x="235" y="599" width="30" height="30" as="geometry" />
        </mxCell>
        <mxCell id="gyXMwO3ofP4Fgjw1sUbA-122" value="&lt;font style=&quot;&quot;&gt;&lt;span style=&quot;font-size: 25px; font-style: italic;&quot;&gt;x&lt;/span&gt;&lt;sub style=&quot;&quot;&gt;&lt;font style=&quot;font-size: 20px;&quot;&gt;3&lt;/font&gt;&lt;/sub&gt;&lt;/font&gt;" style="text;html=1;strokeColor=none;fillColor=none;align=center;verticalAlign=middle;whiteSpace=wrap;rounded=0;fontFamily=Times New Roman;fontSize=25;" parent="gyXMwO3ofP4Fgjw1sUbA-225" vertex="1">
          <mxGeometry x="125" y="599" width="30" height="30" as="geometry" />
        </mxCell>
        <mxCell id="gyXMwO3ofP4Fgjw1sUbA-123" value="" style="group;fontFamily=Times New Roman;fontSize=25;fontColor=#FFFFFF;" parent="gyXMwO3ofP4Fgjw1sUbA-225" vertex="1" connectable="0">
          <mxGeometry x="100" y="489" width="80" height="80" as="geometry" />
        </mxCell>
        <mxCell id="gyXMwO3ofP4Fgjw1sUbA-124" value="1.0" style="ellipse;whiteSpace=wrap;html=1;aspect=fixed;fontFamily=Times New Roman;fontSize=25;fontColor=#ffffff;fillColor=#008a00;strokeColor=#005700;" parent="gyXMwO3ofP4Fgjw1sUbA-123" vertex="1">
          <mxGeometry width="80" height="80" as="geometry" />
        </mxCell>
        <mxCell id="gyXMwO3ofP4Fgjw1sUbA-121" value="" style="edgeStyle=orthogonalEdgeStyle;rounded=0;orthogonalLoop=1;jettySize=auto;html=1;fontFamily=Times New Roman;fontSize=25;" parent="gyXMwO3ofP4Fgjw1sUbA-225" source="gyXMwO3ofP4Fgjw1sUbA-122" target="gyXMwO3ofP4Fgjw1sUbA-124" edge="1">
          <mxGeometry relative="1" as="geometry" />
        </mxCell>
        <mxCell id="gyXMwO3ofP4Fgjw1sUbA-126" value="" style="group;fontFamily=Times New Roman;fontSize=25;fontColor=#FFFFFF;" parent="gyXMwO3ofP4Fgjw1sUbA-225" vertex="1" connectable="0">
          <mxGeometry x="210" y="489" width="80" height="80" as="geometry" />
        </mxCell>
        <mxCell id="gyXMwO3ofP4Fgjw1sUbA-127" value="" style="ellipse;whiteSpace=wrap;html=1;aspect=fixed;fontFamily=Times New Roman;fontSize=25;fontColor=#FFFFFF;" parent="gyXMwO3ofP4Fgjw1sUbA-126" vertex="1">
          <mxGeometry width="80" height="80" as="geometry" />
        </mxCell>
        <mxCell id="gyXMwO3ofP4Fgjw1sUbA-128" value="" style="endArrow=none;html=1;rounded=0;edgeStyle=orthogonalEdgeStyle;curved=1;fontFamily=Times New Roman;fontSize=25;fontColor=#FFFFFF;" parent="gyXMwO3ofP4Fgjw1sUbA-126" edge="1">
          <mxGeometry width="50" height="50" relative="1" as="geometry">
            <mxPoint x="55" y="55" as="sourcePoint" />
            <mxPoint x="25" y="55" as="targetPoint" />
            <Array as="points">
              <mxPoint x="45" y="55" />
              <mxPoint x="45" y="25" />
              <mxPoint x="35" y="25" />
              <mxPoint x="35" y="55" />
            </Array>
          </mxGeometry>
        </mxCell>
        <mxCell id="gyXMwO3ofP4Fgjw1sUbA-119" value="" style="edgeStyle=orthogonalEdgeStyle;rounded=0;orthogonalLoop=1;jettySize=auto;html=1;fontFamily=Times New Roman;fontSize=25;" parent="gyXMwO3ofP4Fgjw1sUbA-225" source="gyXMwO3ofP4Fgjw1sUbA-120" target="gyXMwO3ofP4Fgjw1sUbA-127" edge="1">
          <mxGeometry relative="1" as="geometry" />
        </mxCell>
        <mxCell id="gyXMwO3ofP4Fgjw1sUbA-132" value="" style="shape=sumEllipse;perimeter=ellipsePerimeter;whiteSpace=wrap;html=1;backgroundOutline=1;fontFamily=Times New Roman;fontSize=25;fontColor=#FFFFFF;" parent="gyXMwO3ofP4Fgjw1sUbA-225" vertex="1">
          <mxGeometry x="100" y="369" width="80" height="80" as="geometry" />
        </mxCell>
        <mxCell id="gyXMwO3ofP4Fgjw1sUbA-134" value="&lt;font style=&quot;&quot;&gt;&lt;i style=&quot;font-size: 25px;&quot;&gt;x&lt;/i&gt;&lt;sub style=&quot;&quot;&gt;&lt;font style=&quot;font-size: 20px;&quot;&gt;4&lt;/font&gt;&lt;/sub&gt;&lt;/font&gt;" style="text;html=1;strokeColor=none;fillColor=none;align=center;verticalAlign=middle;whiteSpace=wrap;rounded=0;fontFamily=Times New Roman;fontSize=25;" parent="gyXMwO3ofP4Fgjw1sUbA-225" vertex="1">
          <mxGeometry x="455" y="599" width="30" height="30" as="geometry" />
        </mxCell>
        <mxCell id="gyXMwO3ofP4Fgjw1sUbA-136" value="&lt;font style=&quot;&quot;&gt;&lt;i style=&quot;font-size: 25px;&quot;&gt;x&lt;/i&gt;&lt;sub style=&quot;&quot;&gt;&lt;font style=&quot;font-size: 20px;&quot;&gt;3&lt;/font&gt;&lt;/sub&gt;&lt;/font&gt;" style="text;html=1;strokeColor=none;fillColor=none;align=center;verticalAlign=middle;whiteSpace=wrap;rounded=0;fontFamily=Times New Roman;fontSize=25;" parent="gyXMwO3ofP4Fgjw1sUbA-225" vertex="1">
          <mxGeometry x="345" y="599" width="30" height="30" as="geometry" />
        </mxCell>
        <mxCell id="gyXMwO3ofP4Fgjw1sUbA-137" value="" style="group;fontFamily=Times New Roman;fontSize=25;fontColor=#FFFFFF;" parent="gyXMwO3ofP4Fgjw1sUbA-225" vertex="1" connectable="0">
          <mxGeometry x="320" y="489" width="80" height="80" as="geometry" />
        </mxCell>
        <mxCell id="gyXMwO3ofP4Fgjw1sUbA-138" value="1.0" style="ellipse;whiteSpace=wrap;html=1;aspect=fixed;fontFamily=Times New Roman;fontSize=25;fontColor=#ffffff;fillColor=#008a00;strokeColor=#005700;" parent="gyXMwO3ofP4Fgjw1sUbA-137" vertex="1">
          <mxGeometry width="80" height="80" as="geometry" />
        </mxCell>
        <mxCell id="gyXMwO3ofP4Fgjw1sUbA-135" value="" style="edgeStyle=orthogonalEdgeStyle;rounded=0;orthogonalLoop=1;jettySize=auto;html=1;fontFamily=Times New Roman;fontSize=25;" parent="gyXMwO3ofP4Fgjw1sUbA-225" source="gyXMwO3ofP4Fgjw1sUbA-136" target="gyXMwO3ofP4Fgjw1sUbA-138" edge="1">
          <mxGeometry relative="1" as="geometry" />
        </mxCell>
        <mxCell id="gyXMwO3ofP4Fgjw1sUbA-140" value="" style="group;fontFamily=Times New Roman;fontSize=25;fontColor=#FFFFFF;" parent="gyXMwO3ofP4Fgjw1sUbA-225" vertex="1" connectable="0">
          <mxGeometry x="430" y="489" width="80" height="80" as="geometry" />
        </mxCell>
        <mxCell id="gyXMwO3ofP4Fgjw1sUbA-141" value="" style="ellipse;whiteSpace=wrap;html=1;aspect=fixed;fontFamily=Times New Roman;fontSize=25;fontColor=#FFFFFF;" parent="gyXMwO3ofP4Fgjw1sUbA-140" vertex="1">
          <mxGeometry width="80" height="80" as="geometry" />
        </mxCell>
        <mxCell id="gyXMwO3ofP4Fgjw1sUbA-142" value="" style="endArrow=none;html=1;rounded=0;edgeStyle=orthogonalEdgeStyle;curved=1;fontFamily=Times New Roman;fontSize=25;fontColor=#FFFFFF;" parent="gyXMwO3ofP4Fgjw1sUbA-140" edge="1">
          <mxGeometry width="50" height="50" relative="1" as="geometry">
            <mxPoint x="55" y="55" as="sourcePoint" />
            <mxPoint x="25" y="55" as="targetPoint" />
            <Array as="points">
              <mxPoint x="45" y="55" />
              <mxPoint x="45" y="25" />
              <mxPoint x="35" y="25" />
              <mxPoint x="35" y="55" />
            </Array>
          </mxGeometry>
        </mxCell>
        <mxCell id="gyXMwO3ofP4Fgjw1sUbA-146" value="" style="shape=sumEllipse;perimeter=ellipsePerimeter;whiteSpace=wrap;html=1;backgroundOutline=1;fontFamily=Times New Roman;fontSize=25;fontColor=#FFFFFF;" parent="gyXMwO3ofP4Fgjw1sUbA-225" vertex="1">
          <mxGeometry x="430" y="369" width="80" height="80" as="geometry" />
        </mxCell>
        <mxCell id="gyXMwO3ofP4Fgjw1sUbA-133" value="" style="edgeStyle=orthogonalEdgeStyle;rounded=0;orthogonalLoop=1;jettySize=auto;html=1;fontFamily=Times New Roman;fontSize=25;" parent="gyXMwO3ofP4Fgjw1sUbA-225" source="gyXMwO3ofP4Fgjw1sUbA-134" target="gyXMwO3ofP4Fgjw1sUbA-141" edge="1">
          <mxGeometry relative="1" as="geometry" />
        </mxCell>
        <mxCell id="gyXMwO3ofP4Fgjw1sUbA-147" value="" style="shape=orEllipse;perimeter=ellipsePerimeter;whiteSpace=wrap;html=1;backgroundOutline=1;fontFamily=Times New Roman;fontSize=25;fontColor=#FFFFFF;" parent="gyXMwO3ofP4Fgjw1sUbA-225" vertex="1">
          <mxGeometry x="210" y="249" width="80" height="80" as="geometry" />
        </mxCell>
        <mxCell id="gyXMwO3ofP4Fgjw1sUbA-151" value="" style="edgeStyle=orthogonalEdgeStyle;rounded=0;orthogonalLoop=1;jettySize=auto;html=1;fontFamily=Times New Roman;fontSize=25;fontColor=#FFFFFF;" parent="gyXMwO3ofP4Fgjw1sUbA-225" source="gyXMwO3ofP4Fgjw1sUbA-148" target="gyXMwO3ofP4Fgjw1sUbA-147" edge="1">
          <mxGeometry relative="1" as="geometry" />
        </mxCell>
        <mxCell id="gyXMwO3ofP4Fgjw1sUbA-148" value="" style="shape=sumEllipse;perimeter=ellipsePerimeter;whiteSpace=wrap;html=1;backgroundOutline=1;fontFamily=Times New Roman;fontSize=25;fontColor=#FFFFFF;" parent="gyXMwO3ofP4Fgjw1sUbA-225" vertex="1">
          <mxGeometry x="210" y="369" width="80" height="80" as="geometry" />
        </mxCell>
        <mxCell id="gyXMwO3ofP4Fgjw1sUbA-149" value="" style="shape=sumEllipse;perimeter=ellipsePerimeter;whiteSpace=wrap;html=1;backgroundOutline=1;fontFamily=Times New Roman;fontSize=25;fontColor=#FFFFFF;" parent="gyXMwO3ofP4Fgjw1sUbA-225" vertex="1">
          <mxGeometry x="320" y="369" width="80" height="80" as="geometry" />
        </mxCell>
        <mxCell id="gyXMwO3ofP4Fgjw1sUbA-150" value="" style="shape=orEllipse;perimeter=ellipsePerimeter;whiteSpace=wrap;html=1;backgroundOutline=1;fontFamily=Times New Roman;fontSize=25;fontColor=#FFFFFF;" parent="gyXMwO3ofP4Fgjw1sUbA-225" vertex="1">
          <mxGeometry x="320" y="249" width="80" height="80" as="geometry" />
        </mxCell>
        <mxCell id="gyXMwO3ofP4Fgjw1sUbA-131" value="" style="rounded=0;orthogonalLoop=1;jettySize=auto;html=1;entryX=0;entryY=1;entryDx=0;entryDy=0;fontFamily=Times New Roman;fontSize=25;fontColor=#FFFFFF;" parent="gyXMwO3ofP4Fgjw1sUbA-225" source="gyXMwO3ofP4Fgjw1sUbA-132" target="gyXMwO3ofP4Fgjw1sUbA-147" edge="1">
          <mxGeometry relative="1" as="geometry">
            <mxPoint x="200" y="249" as="targetPoint" />
          </mxGeometry>
        </mxCell>
        <mxCell id="gyXMwO3ofP4Fgjw1sUbA-155" value="" style="edgeStyle=orthogonalEdgeStyle;rounded=0;orthogonalLoop=1;jettySize=auto;html=1;fontFamily=Times New Roman;fontSize=25;fontColor=#FFFFFF;" parent="gyXMwO3ofP4Fgjw1sUbA-225" source="gyXMwO3ofP4Fgjw1sUbA-141" target="gyXMwO3ofP4Fgjw1sUbA-146" edge="1">
          <mxGeometry relative="1" as="geometry" />
        </mxCell>
        <mxCell id="gyXMwO3ofP4Fgjw1sUbA-156" value="" style="edgeStyle=orthogonalEdgeStyle;rounded=0;orthogonalLoop=1;jettySize=auto;html=1;fontFamily=Times New Roman;fontSize=25;fontColor=#FFFFFF;" parent="gyXMwO3ofP4Fgjw1sUbA-225" source="gyXMwO3ofP4Fgjw1sUbA-124" target="gyXMwO3ofP4Fgjw1sUbA-132" edge="1">
          <mxGeometry relative="1" as="geometry" />
        </mxCell>
        <mxCell id="gyXMwO3ofP4Fgjw1sUbA-157" value="" style="rounded=0;orthogonalLoop=1;jettySize=auto;html=1;entryX=1;entryY=1;entryDx=0;entryDy=0;fontFamily=Times New Roman;fontSize=25;fontColor=#FFFFFF;" parent="gyXMwO3ofP4Fgjw1sUbA-225" source="gyXMwO3ofP4Fgjw1sUbA-127" target="gyXMwO3ofP4Fgjw1sUbA-132" edge="1">
          <mxGeometry relative="1" as="geometry" />
        </mxCell>
        <mxCell id="gyXMwO3ofP4Fgjw1sUbA-158" value="" style="edgeStyle=orthogonalEdgeStyle;rounded=0;orthogonalLoop=1;jettySize=auto;html=1;fontFamily=Times New Roman;fontSize=25;fontColor=#FFFFFF;" parent="gyXMwO3ofP4Fgjw1sUbA-225" source="gyXMwO3ofP4Fgjw1sUbA-127" target="gyXMwO3ofP4Fgjw1sUbA-148" edge="1">
          <mxGeometry relative="1" as="geometry" />
        </mxCell>
        <mxCell id="gyXMwO3ofP4Fgjw1sUbA-154" value="" style="rounded=0;orthogonalLoop=1;jettySize=auto;html=1;entryX=1;entryY=1;entryDx=0;entryDy=0;fontFamily=Times New Roman;fontSize=25;fontColor=#FFFFFF;" parent="gyXMwO3ofP4Fgjw1sUbA-225" source="gyXMwO3ofP4Fgjw1sUbA-146" target="gyXMwO3ofP4Fgjw1sUbA-150" edge="1">
          <mxGeometry relative="1" as="geometry">
            <mxPoint x="470" y="248.99999999999977" as="targetPoint" />
          </mxGeometry>
        </mxCell>
        <mxCell id="gyXMwO3ofP4Fgjw1sUbA-160" value="" style="rounded=0;orthogonalLoop=1;jettySize=auto;html=1;entryX=0;entryY=1;entryDx=0;entryDy=0;fontFamily=Times New Roman;fontSize=25;fontColor=#FFFFFF;" parent="gyXMwO3ofP4Fgjw1sUbA-225" source="gyXMwO3ofP4Fgjw1sUbA-138" target="gyXMwO3ofP4Fgjw1sUbA-146" edge="1">
          <mxGeometry relative="1" as="geometry" />
        </mxCell>
        <mxCell id="gyXMwO3ofP4Fgjw1sUbA-152" value="" style="edgeStyle=orthogonalEdgeStyle;rounded=0;orthogonalLoop=1;jettySize=auto;html=1;fontFamily=Times New Roman;fontSize=25;fontColor=#FFFFFF;" parent="gyXMwO3ofP4Fgjw1sUbA-225" source="gyXMwO3ofP4Fgjw1sUbA-149" target="gyXMwO3ofP4Fgjw1sUbA-150" edge="1">
          <mxGeometry relative="1" as="geometry" />
        </mxCell>
        <mxCell id="gyXMwO3ofP4Fgjw1sUbA-162" value="" style="rounded=0;orthogonalLoop=1;jettySize=auto;html=1;entryX=1;entryY=1;entryDx=0;entryDy=0;fontFamily=Times New Roman;fontSize=25;fontColor=#FFFFFF;" parent="gyXMwO3ofP4Fgjw1sUbA-225" source="gyXMwO3ofP4Fgjw1sUbA-141" target="gyXMwO3ofP4Fgjw1sUbA-149" edge="1">
          <mxGeometry relative="1" as="geometry">
            <mxPoint x="630" y="529" as="targetPoint" />
          </mxGeometry>
        </mxCell>
        <mxCell id="gyXMwO3ofP4Fgjw1sUbA-164" value="" style="rounded=0;orthogonalLoop=1;jettySize=auto;html=1;entryX=0;entryY=1;entryDx=0;entryDy=0;fontFamily=Times New Roman;fontSize=25;fontColor=#FFFFFF;" parent="gyXMwO3ofP4Fgjw1sUbA-225" source="gyXMwO3ofP4Fgjw1sUbA-124" target="gyXMwO3ofP4Fgjw1sUbA-149" edge="1">
          <mxGeometry relative="1" as="geometry">
            <mxPoint x="-20" y="529" as="targetPoint" />
          </mxGeometry>
        </mxCell>
        <mxCell id="gyXMwO3ofP4Fgjw1sUbA-165" value="" style="rounded=0;orthogonalLoop=1;jettySize=auto;html=1;entryX=1;entryY=1;entryDx=0;entryDy=0;fontFamily=Times New Roman;fontSize=25;fontColor=#FFFFFF;" parent="gyXMwO3ofP4Fgjw1sUbA-225" source="gyXMwO3ofP4Fgjw1sUbA-138" target="gyXMwO3ofP4Fgjw1sUbA-148" edge="1">
          <mxGeometry relative="1" as="geometry" />
        </mxCell>
        <mxCell id="gyXMwO3ofP4Fgjw1sUbA-166" value="" style="shape=sumEllipse;perimeter=ellipsePerimeter;whiteSpace=wrap;html=1;backgroundOutline=1;fontFamily=Times New Roman;fontSize=25;fontColor=#FFFFFF;" parent="gyXMwO3ofP4Fgjw1sUbA-225" vertex="1">
          <mxGeometry x="210" y="122" width="80" height="80" as="geometry" />
        </mxCell>
        <mxCell id="gyXMwO3ofP4Fgjw1sUbA-209" value="" style="edgeStyle=orthogonalEdgeStyle;rounded=0;orthogonalLoop=1;jettySize=auto;html=1;fontFamily=Times New Roman;fontSize=25;fontColor=#FFFFFF;" parent="gyXMwO3ofP4Fgjw1sUbA-225" source="gyXMwO3ofP4Fgjw1sUbA-147" target="gyXMwO3ofP4Fgjw1sUbA-166" edge="1">
          <mxGeometry relative="1" as="geometry" />
        </mxCell>
        <mxCell id="gyXMwO3ofP4Fgjw1sUbA-167" value="" style="shape=sumEllipse;perimeter=ellipsePerimeter;whiteSpace=wrap;html=1;backgroundOutline=1;fontFamily=Times New Roman;fontSize=25;fontColor=#FFFFFF;" parent="gyXMwO3ofP4Fgjw1sUbA-225" vertex="1">
          <mxGeometry x="320" y="122" width="80" height="80" as="geometry" />
        </mxCell>
        <mxCell id="gyXMwO3ofP4Fgjw1sUbA-210" value="" style="edgeStyle=orthogonalEdgeStyle;rounded=0;orthogonalLoop=1;jettySize=auto;html=1;fontFamily=Times New Roman;fontSize=25;fontColor=#FFFFFF;" parent="gyXMwO3ofP4Fgjw1sUbA-225" source="gyXMwO3ofP4Fgjw1sUbA-150" target="gyXMwO3ofP4Fgjw1sUbA-167" edge="1">
          <mxGeometry relative="1" as="geometry" />
        </mxCell>
        <mxCell id="gyXMwO3ofP4Fgjw1sUbA-175" value="" style="group;fontFamily=Times New Roman;fontSize=25;fontColor=#FFFFFF;" parent="gyXMwO3ofP4Fgjw1sUbA-225" vertex="1" connectable="0">
          <mxGeometry x="462" y="249" width="80" height="80" as="geometry" />
        </mxCell>
        <mxCell id="gyXMwO3ofP4Fgjw1sUbA-176" value="" style="ellipse;whiteSpace=wrap;html=1;aspect=fixed;fontFamily=Times New Roman;fontSize=25;fontColor=#FFFFFF;" parent="gyXMwO3ofP4Fgjw1sUbA-175" vertex="1">
          <mxGeometry width="80" height="80" as="geometry" />
        </mxCell>
        <mxCell id="gyXMwO3ofP4Fgjw1sUbA-177" value="" style="endArrow=none;html=1;rounded=0;edgeStyle=orthogonalEdgeStyle;curved=1;fontFamily=Times New Roman;fontSize=25;fontColor=#FFFFFF;" parent="gyXMwO3ofP4Fgjw1sUbA-175" edge="1">
          <mxGeometry width="50" height="50" relative="1" as="geometry">
            <mxPoint x="55" y="55" as="sourcePoint" />
            <mxPoint x="25" y="55" as="targetPoint" />
            <Array as="points">
              <mxPoint x="45" y="55" />
              <mxPoint x="45" y="25" />
              <mxPoint x="35" y="25" />
              <mxPoint x="35" y="55" />
            </Array>
          </mxGeometry>
        </mxCell>
        <mxCell id="gyXMwO3ofP4Fgjw1sUbA-178" value="" style="group;fontFamily=Times New Roman;fontSize=25;fontColor=#FFFFFF;" parent="gyXMwO3ofP4Fgjw1sUbA-225" vertex="1" connectable="0">
          <mxGeometry x="462" y="129" width="80" height="80" as="geometry" />
        </mxCell>
        <mxCell id="gyXMwO3ofP4Fgjw1sUbA-179" value="&lt;font style=&quot;font-size: 25px;&quot;&gt;1.0&lt;/font&gt;" style="ellipse;whiteSpace=wrap;html=1;aspect=fixed;fontFamily=Times New Roman;fontSize=25;fontColor=#ffffff;fillColor=#008a00;strokeColor=#005700;" parent="gyXMwO3ofP4Fgjw1sUbA-178" vertex="1">
          <mxGeometry y="-7" width="80" height="80" as="geometry" />
        </mxCell>
        <mxCell id="gyXMwO3ofP4Fgjw1sUbA-200" value="" style="group;fontFamily=Times New Roman;fontSize=25;fontColor=#FFFFFF;" parent="gyXMwO3ofP4Fgjw1sUbA-225" vertex="1" connectable="0">
          <mxGeometry x="70" y="249" width="80" height="80" as="geometry" />
        </mxCell>
        <mxCell id="gyXMwO3ofP4Fgjw1sUbA-201" value="" style="ellipse;whiteSpace=wrap;html=1;aspect=fixed;fontFamily=Times New Roman;fontSize=25;fontColor=#FFFFFF;" parent="gyXMwO3ofP4Fgjw1sUbA-200" vertex="1">
          <mxGeometry width="80" height="80" as="geometry" />
        </mxCell>
        <mxCell id="gyXMwO3ofP4Fgjw1sUbA-202" value="" style="endArrow=none;html=1;rounded=0;edgeStyle=orthogonalEdgeStyle;curved=1;fontFamily=Times New Roman;fontSize=25;fontColor=#FFFFFF;" parent="gyXMwO3ofP4Fgjw1sUbA-200" edge="1">
          <mxGeometry width="50" height="50" relative="1" as="geometry">
            <mxPoint x="55" y="55" as="sourcePoint" />
            <mxPoint x="25" y="55" as="targetPoint" />
            <Array as="points">
              <mxPoint x="45" y="55" />
              <mxPoint x="45" y="25" />
              <mxPoint x="35" y="25" />
              <mxPoint x="35" y="55" />
            </Array>
          </mxGeometry>
        </mxCell>
        <mxCell id="gyXMwO3ofP4Fgjw1sUbA-203" value="" style="group;fontFamily=Times New Roman;fontSize=25;fontColor=#FFFFFF;fillColor=default;" parent="gyXMwO3ofP4Fgjw1sUbA-225" vertex="1" connectable="0">
          <mxGeometry x="70" y="129" width="80" height="80" as="geometry" />
        </mxCell>
        <mxCell id="gyXMwO3ofP4Fgjw1sUbA-204" value="&lt;font color=&quot;#ffffff&quot; style=&quot;font-size: 25px;&quot;&gt;1.0&lt;/font&gt;" style="ellipse;whiteSpace=wrap;html=1;aspect=fixed;fontFamily=Times New Roman;fontSize=25;fillColor=#008a00;strokeColor=#005700;fontColor=#ffffff;" parent="gyXMwO3ofP4Fgjw1sUbA-203" vertex="1">
          <mxGeometry y="-7" width="80" height="80" as="geometry" />
        </mxCell>
        <mxCell id="gyXMwO3ofP4Fgjw1sUbA-206" value="" style="shape=orEllipse;perimeter=ellipsePerimeter;whiteSpace=wrap;html=1;backgroundOutline=1;fontFamily=Times New Roman;fontSize=25;fontColor=#FFFFFF;" parent="gyXMwO3ofP4Fgjw1sUbA-225" vertex="1">
          <mxGeometry x="265" width="80" height="80" as="geometry" />
        </mxCell>
        <mxCell id="gyXMwO3ofP4Fgjw1sUbA-211" value="" style="rounded=0;orthogonalLoop=1;jettySize=auto;html=1;entryX=1;entryY=1;entryDx=0;entryDy=0;fontFamily=Times New Roman;fontSize=25;fontColor=#FFFFFF;" parent="gyXMwO3ofP4Fgjw1sUbA-225" source="gyXMwO3ofP4Fgjw1sUbA-176" target="gyXMwO3ofP4Fgjw1sUbA-167" edge="1">
          <mxGeometry relative="1" as="geometry" />
        </mxCell>
        <mxCell id="gyXMwO3ofP4Fgjw1sUbA-212" value="" style="edgeStyle=orthogonalEdgeStyle;rounded=0;orthogonalLoop=1;jettySize=auto;html=1;fontFamily=Times New Roman;fontSize=25;fontColor=#FFFFFF;" parent="gyXMwO3ofP4Fgjw1sUbA-225" source="gyXMwO3ofP4Fgjw1sUbA-179" target="gyXMwO3ofP4Fgjw1sUbA-167" edge="1">
          <mxGeometry relative="1" as="geometry" />
        </mxCell>
        <mxCell id="gyXMwO3ofP4Fgjw1sUbA-213" value="" style="rounded=0;orthogonalLoop=1;jettySize=auto;html=1;entryX=0;entryY=1;entryDx=0;entryDy=0;fontFamily=Times New Roman;fontSize=25;fontColor=#FFFFFF;" parent="gyXMwO3ofP4Fgjw1sUbA-225" source="gyXMwO3ofP4Fgjw1sUbA-201" target="gyXMwO3ofP4Fgjw1sUbA-166" edge="1">
          <mxGeometry relative="1" as="geometry" />
        </mxCell>
        <mxCell id="gyXMwO3ofP4Fgjw1sUbA-207" value="" style="rounded=0;orthogonalLoop=1;jettySize=auto;html=1;fontFamily=Times New Roman;fontSize=25;fontColor=#FFFFFF;" parent="gyXMwO3ofP4Fgjw1sUbA-225" source="gyXMwO3ofP4Fgjw1sUbA-166" target="gyXMwO3ofP4Fgjw1sUbA-206" edge="1">
          <mxGeometry relative="1" as="geometry" />
        </mxCell>
        <mxCell id="gyXMwO3ofP4Fgjw1sUbA-214" value="" style="edgeStyle=orthogonalEdgeStyle;rounded=0;orthogonalLoop=1;jettySize=auto;html=1;fontFamily=Times New Roman;fontSize=25;fontColor=#FFFFFF;" parent="gyXMwO3ofP4Fgjw1sUbA-225" source="gyXMwO3ofP4Fgjw1sUbA-204" target="gyXMwO3ofP4Fgjw1sUbA-166" edge="1">
          <mxGeometry relative="1" as="geometry" />
        </mxCell>
        <mxCell id="gyXMwO3ofP4Fgjw1sUbA-222" value="" style="edgeStyle=orthogonalEdgeStyle;rounded=0;orthogonalLoop=1;jettySize=auto;html=1;fontFamily=Times New Roman;fontSize=25;" parent="gyXMwO3ofP4Fgjw1sUbA-225" source="gyXMwO3ofP4Fgjw1sUbA-215" target="gyXMwO3ofP4Fgjw1sUbA-201" edge="1">
          <mxGeometry relative="1" as="geometry" />
        </mxCell>
        <mxCell id="gyXMwO3ofP4Fgjw1sUbA-215" value="&lt;font style=&quot;&quot;&gt;&lt;i style=&quot;font-size: 25px;&quot;&gt;x&lt;/i&gt;&lt;sub style=&quot;&quot;&gt;&lt;font style=&quot;font-size: 20px;&quot;&gt;2&lt;/font&gt;&lt;/sub&gt;&lt;/font&gt;" style="text;html=1;strokeColor=none;fillColor=none;align=center;verticalAlign=middle;whiteSpace=wrap;rounded=0;fontFamily=Times New Roman;fontSize=25;" parent="gyXMwO3ofP4Fgjw1sUbA-225" vertex="1">
          <mxGeometry y="274" width="30" height="30" as="geometry" />
        </mxCell>
        <mxCell id="gyXMwO3ofP4Fgjw1sUbA-221" value="" style="edgeStyle=orthogonalEdgeStyle;rounded=0;orthogonalLoop=1;jettySize=auto;html=1;fontFamily=Times New Roman;fontSize=25;" parent="gyXMwO3ofP4Fgjw1sUbA-225" source="gyXMwO3ofP4Fgjw1sUbA-216" target="gyXMwO3ofP4Fgjw1sUbA-204" edge="1">
          <mxGeometry relative="1" as="geometry" />
        </mxCell>
        <mxCell id="gyXMwO3ofP4Fgjw1sUbA-216" value="&lt;font style=&quot;&quot;&gt;&lt;i style=&quot;font-size: 25px;&quot;&gt;x&lt;/i&gt;&lt;sub style=&quot;&quot;&gt;&lt;font style=&quot;font-size: 20px;&quot;&gt;1&lt;/font&gt;&lt;/sub&gt;&lt;/font&gt;" style="text;html=1;strokeColor=none;fillColor=none;align=center;verticalAlign=middle;whiteSpace=wrap;rounded=0;fontFamily=Times New Roman;fontSize=25;" parent="gyXMwO3ofP4Fgjw1sUbA-225" vertex="1">
          <mxGeometry y="147" width="30" height="30" as="geometry" />
        </mxCell>
        <mxCell id="gyXMwO3ofP4Fgjw1sUbA-224" value="" style="edgeStyle=orthogonalEdgeStyle;rounded=0;orthogonalLoop=1;jettySize=auto;html=1;fontFamily=Times New Roman;fontSize=25;" parent="gyXMwO3ofP4Fgjw1sUbA-225" source="gyXMwO3ofP4Fgjw1sUbA-219" target="gyXMwO3ofP4Fgjw1sUbA-176" edge="1">
          <mxGeometry relative="1" as="geometry" />
        </mxCell>
        <mxCell id="gyXMwO3ofP4Fgjw1sUbA-219" value="&lt;font style=&quot;&quot;&gt;&lt;i style=&quot;font-size: 25px;&quot;&gt;x&lt;/i&gt;&lt;sub style=&quot;&quot;&gt;&lt;font style=&quot;font-size: 20px;&quot;&gt;2&lt;/font&gt;&lt;/sub&gt;&lt;/font&gt;" style="text;html=1;strokeColor=none;fillColor=none;align=center;verticalAlign=middle;whiteSpace=wrap;rounded=0;fontFamily=Times New Roman;fontSize=25;" parent="gyXMwO3ofP4Fgjw1sUbA-225" vertex="1">
          <mxGeometry x="580" y="274" width="30" height="30" as="geometry" />
        </mxCell>
        <mxCell id="gyXMwO3ofP4Fgjw1sUbA-223" value="" style="edgeStyle=orthogonalEdgeStyle;rounded=0;orthogonalLoop=1;jettySize=auto;html=1;fontFamily=Times New Roman;fontSize=25;" parent="gyXMwO3ofP4Fgjw1sUbA-225" source="gyXMwO3ofP4Fgjw1sUbA-220" target="gyXMwO3ofP4Fgjw1sUbA-179" edge="1">
          <mxGeometry relative="1" as="geometry" />
        </mxCell>
        <mxCell id="gyXMwO3ofP4Fgjw1sUbA-220" value="&lt;font style=&quot;&quot;&gt;&lt;i style=&quot;font-size: 25px;&quot;&gt;x&lt;/i&gt;&lt;sub style=&quot;&quot;&gt;&lt;font style=&quot;font-size: 20px;&quot;&gt;1&lt;/font&gt;&lt;/sub&gt;&lt;/font&gt;" style="text;html=1;strokeColor=none;fillColor=none;align=center;verticalAlign=middle;whiteSpace=wrap;rounded=0;fontFamily=Times New Roman;fontSize=25;" parent="gyXMwO3ofP4Fgjw1sUbA-225" vertex="1">
          <mxGeometry x="580" y="147" width="30" height="30" as="geometry" />
        </mxCell>
        <mxCell id="gyXMwO3ofP4Fgjw1sUbA-208" value="" style="rounded=0;orthogonalLoop=1;jettySize=auto;html=1;fontFamily=Times New Roman;fontSize=25;fontColor=#FFFFFF;" parent="gyXMwO3ofP4Fgjw1sUbA-225" source="gyXMwO3ofP4Fgjw1sUbA-167" target="gyXMwO3ofP4Fgjw1sUbA-206" edge="1">
          <mxGeometry relative="1" as="geometry" />
        </mxCell>
      </root>
    </mxGraphModel>
  </diagram>
</mxfile>
